<svg version="1.1" id="Layer_1" xmlns="http://www.w3.org/2000/svg" xmlns:xlink="http://www.w3.org/1999/xlink" x="0px" y="0px"
	 width="100%" viewBox="0 0 500 500" enable-background="new 0 0 500 500" xml:space="preserve">
<path fill="#000000" opacity="1.000000" stroke="none" 
	d="
M280.000000,501.000000 
	C186.666687,501.000000 93.833374,501.000000 1.000050,501.000000 
	C1.000033,334.333405 1.000033,167.666794 1.000017,1.000139 
	C167.666565,1.000093 334.333130,1.000093 500.999756,1.000046 
	C500.999847,167.666519 500.999847,334.333038 500.999939,500.999786 
	C427.500000,501.000000 354.000000,501.000000 280.000000,501.000000 
M189.695297,289.045624 
	C181.555389,312.327148 173.415466,335.608704 165.056747,359.516052 
	C172.505829,359.516052 178.993347,359.344269 185.465103,359.588867 
	C188.676376,359.710266 190.084045,358.616516 191.090240,355.549164 
	C196.220016,339.911438 201.722672,324.395660 206.805115,308.743073 
	C207.838089,305.561798 209.325699,304.768066 212.437820,304.781677 
	C237.767731,304.892609 263.099060,304.935944 288.428009,304.745514 
	C292.262665,304.716675 293.882996,305.886963 295.044495,309.509277 
	C299.968719,324.866425 305.184784,340.130951 310.425903,355.384033 
	C310.948700,356.905609 312.313873,359.249329 313.373627,359.296692 
	C320.958008,359.635376 328.564606,359.477631 336.641541,359.477631 
	C336.221924,357.847992 336.050049,356.902588 335.737488,356.006287 
	C313.346558,291.802917 290.918304,227.612518 268.625305,163.375183 
	C267.578094,160.357727 266.034210,159.721924 263.202637,159.773026 
	C255.206177,159.917267 247.199463,160.002869 239.209137,159.738388 
	C235.824463,159.626373 234.276672,160.669174 233.154816,163.919556 
	C218.835403,205.407700 204.367477,246.844559 189.695297,289.045624 
z"/>
<path fill="#9132E7" opacity="1.000000" stroke="none" 
	d="
M189.816299,288.670044 
	C204.367477,246.844559 218.835403,205.407700 233.154816,163.919556 
	C234.276672,160.669174 235.824463,159.626373 239.209137,159.738388 
	C247.199463,160.002869 255.206177,159.917267 263.202637,159.773026 
	C266.034210,159.721924 267.578094,160.357727 268.625305,163.375183 
	C290.918304,227.612518 313.346558,291.802917 335.737488,356.006287 
	C336.050049,356.902588 336.221924,357.847992 336.641541,359.477631 
	C328.564606,359.477631 320.958008,359.635376 313.373627,359.296692 
	C312.313873,359.249329 310.948700,356.905609 310.425903,355.384033 
	C305.184784,340.130951 299.968719,324.866425 295.044495,309.509277 
	C293.882996,305.886963 292.262665,304.716675 288.428009,304.745514 
	C263.099060,304.935944 237.767731,304.892609 212.437820,304.781677 
	C209.325699,304.768066 207.838089,305.561798 206.805115,308.743073 
	C201.722672,324.395660 196.220016,339.911438 191.090240,355.549164 
	C190.084045,358.616516 188.676376,359.710266 185.465103,359.588867 
	C178.993347,359.344269 172.505829,359.516052 165.056747,359.516052 
	C173.415466,335.608704 181.555389,312.327148 189.816299,288.670044 
M243.626816,200.194992 
	C234.062241,228.323608 224.497665,256.452209 214.850006,284.825104 
	C238.899063,284.825104 262.365601,284.825104 286.308502,284.825104 
	C285.743744,282.823120 285.329712,281.079712 284.761871,279.387939 
	C281.481049,269.613617 278.161926,259.852173 274.859406,250.085129 
	C267.776154,229.136642 260.725372,208.177002 253.538559,187.264099 
	C253.102173,185.994308 251.592285,185.093460 250.581909,184.020950 
	C249.728577,185.067657 248.540054,185.986496 248.083054,187.184372 
	C246.543976,191.218719 245.265060,195.352310 243.626816,200.194992 
z"/>
<path fill="#010001" opacity="1.000000" stroke="none" 
	d="
M243.756714,199.821457 
	C245.265060,195.352310 246.543976,191.218719 248.083054,187.184372 
	C248.540054,185.986496 249.728577,185.067657 250.581909,184.020935 
	C251.592285,185.093460 253.102173,185.994308 253.538559,187.264099 
	C260.725372,208.177002 267.776154,229.136642 274.859406,250.085129 
	C278.161926,259.852173 281.481049,269.613617 284.761871,279.387939 
	C285.329712,281.079712 285.743744,282.823120 286.308502,284.825104 
	C262.365601,284.825104 238.899063,284.825104 214.850006,284.825104 
	C224.497665,256.452209 234.062241,228.323608 243.756714,199.821457 
z"/>
</svg>